<svg xmlns="http://www.w3.org/2000/svg" viewBox="0 0 32 32">
  <rect width="32" height="32" rx="6" fill="#c8a96e"/>
  <!-- Font Awesome leaf icon path, scaled to 32x32 -->
  <path transform="translate(5,3) scale(0.043)" fill="#1c3a2a" d="M272 96c-78.6 0-145.1 51.5-167.7 122.5c33.6-17 71.5-26.5 111.7-26.5h88c8.8 0 16 7.2 16 16s-7.2 16-16 16H216s0 0 0 0c-16.6 0-32.8 1.9-48.3 5.4C124.2 252.5 91.4 284.3 78 326L72 346l20 0c-6.4 0-12.5 .4-18.4 1.1c-39.6 4.9-70.2 37.3-72.6 77.4c-.3 5.1-.8 10.1-1.5 15.1C-.3 444.2 0 448.6 0 453.3L0 480c0 17.7 14.3 32 32 32l448 0c17.7 0 32-14.3 32-32l0-26.7C512 392.3 463.7 344 404.1 344l-11.3 0 0-128C392.8 96 335.5 96 272 96z"/>
</svg>
